<svg version="1.2" xmlns="http://www.w3.org/2000/svg" viewBox="0 0 1592 638" width="1592" height="638">
	<title>wipro_new_logo</title>
	<style>
		.s0 { fill: #ffffff } 
	</style>
	<path fill-rule="evenodd" class="s0" d="m1276.1 30.9c0-17.1-13.8-30.9-30.9-30.9-17.1 0-30.9 13.8-30.9 30.9 0 17.1 13.8 30.9 30.9 30.9 17.1 0 30.9-13.8 30.9-30.9zm259.3 127.3c0-28.5-23-51.5-51.5-51.5-28.5 0-51.5 23-51.5 51.5 0 28.5 23 51.5 51.5 51.5 28.5 0 51.5-23 51.5-51.5zm-259.3 448c0-17-13.8-30.9-30.9-30.9-17.1 0-30.9 13.9-30.9 30.9 0 17.1 13.8 30.9 30.9 30.9 17.1 0 30.9-13.8 30.9-30.9zm259.3-127.3c0-28.5-23-51.5-51.5-51.5-28.5 0-51.5 23-51.5 51.5 0 28.5 23 51.5 51.5 51.5 28.5 0 51.5-23 51.5-51.5zm-125.6-408.3c5.7-20.9-6.8-42.4-27.6-48-20.9-5.5-42.4 6.8-48 27.7-5.6 20.9 6.8 42.4 27.7 47.9 20.9 5.6 42.4-6.8 47.9-27.6zm-27.6 468.3c-20.9-5.6-42.4 6.8-48 27.6-5.6 20.9 6.8 42.4 27.7 48 20.9 5.5 42.4-6.8 47.9-27.7 5.6-20.9-6.8-42.3-27.6-47.9zm186.5-266.3c-25.6-19.9-62.4-15.3-82.3 10.3-19.9 25.6-15.3 62.3 10.3 82.2 25.6 19.9 62.4 15.4 82.3-10.2 19.9-25.6 15.3-62.4-10.3-82.3zm-1105.1 173.9h67.2v-256.8h-67.2zm-6.4-344.1c-5.5 20.6 6.7 41.7 27.4 47.3 20.5 5.5 41.7-6.7 47.2-27.4 5.5-20.6-6.7-41.7-27.3-47.3-20.6-5.5-41.8 6.8-47.3 27.4zm279.3 349.5c32.1-0.1 62.8-13.1 85.1-36.2 11.8-12.2 21.2-26.4 27.7-42.1 7.2-17.6 10.7-36.4 10.4-55.4 0.3-18.8-3.2-37.6-10.2-55.1-6.3-15.8-15.6-30.2-27.4-42.4-11.1-11.5-24.6-20.7-39.4-26.9-14.8-6.1-30.6-9.2-46.6-9.2-16.4-0.3-32.6 3.5-47.1 10.9-13.7 7-25.3 17.3-33.8 30v-35.7h-64.7v384.6h65.3v-159.4c8.5 12.1 20.2 21.5 33.7 27.4 14.9 6.3 30.9 9.5 47.1 9.3zm-13.2-61.8c-19.2 0.1-37.5-7.6-50.9-21.2-13.3-13.7-20.6-32.1-20.5-51.2 0-9.6 1.9-19.1 5.5-28 3.5-8.6 8.5-16.4 15-23.1 6.4-6.5 14.1-11.8 22.6-15.4 8.9-3.9 18.6-5.8 28.3-5.7 9.5-0.1 18.9 1.8 27.6 5.7 8.4 3.7 16.1 8.9 22.6 15.4 6.5 6.6 11.7 14.3 15.2 22.9 7.3 18.1 7.3 38.4 0 56.5-3.5 8.6-8.7 16.3-15.2 22.9-6.5 6.5-14.2 11.7-22.6 15.4-8.7 3.9-18.1 5.8-27.6 5.7zm183.7 56.6h65.4v-135.5q0-32.1 15.2-46.3 15.2-14.1 40.4-14.1c6.8-0.1 13.5 0.8 20 2.6 5 1.3 9.8 3.5 14.1 6.4l23.8-64.7c-6.1-3.1-12.6-5.5-19.2-7-7.9-2-15.9-2.9-24-2.9-15.1-0.4-30 3.3-43.1 10.6-12.8 7.8-22.5 19.6-27.8 33.6v-39.5h-64.7zm324 5.2c18.5 0.2 36.8-3.4 53.9-10.4 16.1-6.5 30.8-16.3 43.1-28.7 12-12.3 21.7-26.7 28.5-42.4 7-16.4 10.5-34 10.4-51.8 0.2-35.5-14-69.6-39.2-94.6-12.4-12.2-27.1-21.9-43.3-28.5-16.9-7.1-35.1-10.7-53.5-10.6-36.1-0.4-70.9 13.5-96.7 38.8-12.2 12.1-22 26.6-28.6 42.4-6.8 16.5-10.3 34.3-10.2 52.1-0.2 35.4 13.8 69.4 38.9 94.4 12.3 12.3 27 22 43 28.7 17.1 7.2 35.4 10.8 53.8 10.6zm0.6-62.4c-9.5 0.2-18.9-1.7-27.6-5.5-8.3-3.7-15.9-8.9-22.3-15.3-6.4-6.4-11.5-14.1-15-22.6-3.7-8.9-5.5-18.5-5.4-28.2-0.1-9.7 1.7-19.2 5.4-28.1 3.5-8.5 8.6-16.3 15-22.8 6.4-6.4 14-11.6 22.3-15.2 17.6-7.7 37.6-7.7 55.2 0 8.3 3.6 15.9 8.8 22.3 15.2 6.5 6.5 11.6 14.3 15 22.8 3.6 8.9 5.5 18.4 5.5 28.1 0.1 9.7-1.8 19.3-5.5 28.2-3.5 8.5-8.5 16.2-15 22.6-6.4 6.5-14 11.6-22.3 15.3-8.7 3.8-18.1 5.8-27.6 5.7zm-1148.6 56.9h62.8l61.7-167.2 61.4 167.2h61.7l86.9-256.5h-66.5l-53.7 163.8-59.8-163.8h-58.5l-60.8 163.8-51.7-163.8h-66.6z"/>
</svg>